<?xml version="1.0" encoding="UTF-8" standalone="no"?>
<!-- Created with Inkscape (http://www.inkscape.org/) -->

<svg
   xmlns:dc="http://purl.org/dc/elements/1.1/"
   xmlns:cc="http://creativecommons.org/ns#"
   xmlns:rdf="http://www.w3.org/1999/02/22-rdf-syntax-ns#"
   xmlns:svg="http://www.w3.org/2000/svg"
   xmlns="http://www.w3.org/2000/svg"
   xmlns:sodipodi="http://sodipodi.sourceforge.net/DTD/sodipodi-0.dtd"
   xmlns:inkscape="http://www.inkscape.org/namespaces/inkscape"
   width="20.098671mm"
   height="20.098671mm"
   viewBox="0 0 71.215764 71.215763"
   id="svg2"
   version="1.1"
   inkscape:version="0.91 r13725"
   sodipodi:docname="icon.svg">
  <defs
     id="defs4" />
  <sodipodi:namedview
     id="base"
     pagecolor="#ffffff"
     bordercolor="#666666"
     borderopacity="1.0"
     inkscape:pageopacity="0.0"
     inkscape:pageshadow="2"
     inkscape:zoom="5.6"
     inkscape:cx="69.191931"
     inkscape:cy="12.905409"
     inkscape:document-units="px"
     inkscape:current-layer="layer3"
     showgrid="false"
     inkscape:window-width="1920"
     inkscape:window-height="1017"
     inkscape:window-x="1912"
     inkscape:window-y="-8"
     inkscape:window-maximized="1"
     fit-margin-top="0"
     fit-margin-left="0"
     fit-margin-right="0"
     fit-margin-bottom="0" />
  <metadata
     id="metadata7">
    <rdf:RDF>
      <cc:Work
         rdf:about="">
        <dc:format>image/svg+xml</dc:format>
        <dc:type
           rdf:resource="http://purl.org/dc/dcmitype/StillImage" />
        <dc:title></dc:title>
      </cc:Work>
    </rdf:RDF>
  </metadata>
  <g
     inkscape:groupmode="layer"
     id="layer3"
     inkscape:label="WP"
     style="display:inline"
     transform="translate(-212.24338,-344.33194)"
     sodipodi:insensitive="true">
    <path
       style="font-style:normal;font-variant:normal;font-weight:normal;font-stretch:normal;font-size:medium;line-height:125%;font-family:Scheherazade;-inkscape-font-specification:Scheherazade;letter-spacing:0px;word-spacing:0px;display:inline;fill:#ffffff;fill-opacity:1;stroke:none;stroke-width:1px;stroke-linecap:butt;stroke-linejoin:miter;stroke-opacity:1"
       d="m 35.607422,1.8828125 c -18.60875,0 -33.7265626,15.1158695 -33.7265626,33.7246095 0,18.60875 15.1178126,33.726562 33.7265626,33.726562 18.60875,-1e-5 33.724609,-15.117812 33.724609,-33.726562 0,-18.60874 -15.115859,-33.7245995 -33.724609,-33.7246095 z m 0,2.9472656 c 8.543311,0 16.264995,3.4712168 21.83789,9.0800779 L 40.443359,66.005859 c -1.575395,0.248002 -3.19017,0.378906 -4.835937,0.378907 -17.01499,0 -30.7773439,-13.762354 -30.7773439,-30.777344 0,-6.304078 1.8928819,-12.158581 5.1367188,-17.035156 0.3148211,0.524268 0.5798641,1.109073 0.7832031,1.769531 0.24469,0.6992 0.500628,1.432032 0.767578,2.201172 l 10.044922,29.716797 0.966797,0 7.708984,-22.863282 7.740235,22.863282 1.068359,0 9.443359,-28.947266 c 0.2447,-0.69922 0.489685,-1.443888 0.734375,-2.236328 0.26695,-0.79244 0.588627,-1.515369 0.966797,-2.167969 0.37817,-0.6759 0.857167,-1.223058 1.435547,-1.642578 0.57839,-0.44284 1.311352,-0.666016 2.201172,-0.666016 l 0,-0.943359 -10.109375,0 0,0.943359 c 0.40042,0 0.811705,0.0355 1.234375,0.105469 0.42265,0.0466 0.812039,0.163149 1.167969,0.34961 0.37817,0.163139 0.67793,0.408074 0.90039,0.734374 0.2447,0.303 0.367188,0.71185 0.367188,1.22461 0,0.27969 -0.0438,0.617452 -0.132813,1.013672 -0.0667,0.37291 -0.156348,0.756134 -0.267578,1.152344 -0.089,0.39622 -0.189551,0.781376 -0.300781,1.154296 -0.11122,0.37292 -0.211801,0.698826 -0.300781,0.978516 l -6.50586,19.753906 -6.574218,-19.474609 c -0.24469,-0.6293 -0.489675,-1.373968 -0.734375,-2.236328 -0.22246,-0.88567 -0.332032,-1.68958 -0.332032,-2.41211 0,-0.58267 0.09861,-1.025125 0.298828,-1.328125 0.222461,-0.3263 0.500305,-0.559378 0.833985,-0.699218 0.35592,-0.16312 0.745309,-0.25792 1.167969,-0.28125 0.44491,-0.0233 0.880074,-0.03516 1.302734,-0.03516 l 0,-0.943359 -13.314453,0 0,0.943359 c 1.06778,0 1.958072,0.327869 2.669922,0.980469 0.7341,0.6526 1.344584,1.45652 1.833984,2.41211 0.4894,0.955589 0.889732,1.980741 1.201172,3.076171 0.31144,1.07213 0.591238,2.039984 0.835937,2.902344 L 23.396484,43.066406 16.722656,22.962891 c -0.089,-0.25638 -0.200504,-0.57044 -0.333984,-0.94336 -0.11122,-0.37292 -0.220801,-0.758087 -0.332031,-1.154297 -0.11122,-0.39623 -0.211792,-0.779433 -0.300782,-1.152343 -0.089,-0.37291 -0.134765,-0.700769 -0.134765,-0.980469 0,-0.48944 0.100571,-0.872654 0.300781,-1.152344 0.22245,-0.27969 0.489341,-0.491019 0.800781,-0.630859 0.33368,-0.13986 0.69018,-0.232697 1.06836,-0.279297 0.40041,-0.0466 0.767872,-0.07031 1.101562,-0.07031 l 0,-0.943359 -6.720703,0 C 17.814317,9.0324736 26.211392,4.8300781 35.607422,4.8300781 Z m 16.324219,29.2128909 6.298828,0 c 0.7494,0 1.513165,0.0698 2.291015,0.208984 l 0.002,0 c 0.806938,0.1427 1.542255,0.409565 2.197265,0.796875 0.67782,0.3831 1.239496,0.92027 1.666016,1.59961 0.4596,0.714569 0.675781,1.613003 0.675781,2.652343 0,0.99027 -0.159559,1.846425 -0.505859,2.552735 l 0,0.002 c -0.32573,0.67424 -0.784828,1.224476 -1.361329,1.628906 -0.567118,0.39783 -1.227056,0.673558 -1.966796,0.830078 -0.71299,0.15302 -1.465843,0.228516 -2.257813,0.228516 -0.34518,0 -0.693728,-0.0101 -1.048828,-0.0332 l -0.0078,-0.002 -0.0098,0 c -0.18191,-0.0184 -0.37438,-0.03639 -0.5625,-0.05469 l 0,4.308594 c 0,0.51024 0.02832,0.917997 0.07422,1.216797 0.0504,0.25465 0.12845,0.424792 0.21875,0.539062 0.0944,0.0981 0.239475,0.185181 0.478515,0.238281 0.25778,0.0573 0.63906,0.0918 1.125,0.0918 l 0.435547,0 0,1.429688 -7.742187,0 0,-1.429688 0.4375,0 c 0.48595,0 0.861358,-0.0356 1.105468,-0.0918 l 0.002,0 0.002,0 c 0.24098,-0.0536 0.376431,-0.139768 0.457031,-0.230468 0.0867,-0.10776 0.158206,-0.265885 0.191406,-0.521485 0.038,-0.30666 0.05859,-0.725227 0.05859,-1.242187 l 0,-11.203125 c 0,-0.52851 -0.02099,-0.947745 -0.05859,-1.240235 l 0,-0.002 c -0.034,-0.27384 -0.107359,-0.440242 -0.193359,-0.544922 l -0.0059,-0.0078 -0.0059,-0.0059 c -0.069,-0.09 -0.191568,-0.175615 -0.429687,-0.228515 l -0.002,0 -0.002,0 c -0.24305,-0.056 -0.624274,-0.08984 -1.121093,-0.08984 l -0.435547,0 0,-1.394531 0,-0.002 z m 6.564453,1.935547 c -0.23347,0 -0.47116,0.02703 -0.71875,0.07813 l -0.435547,0.0918 0,6.513671 c 0.18999,0.0278 0.378439,0.06018 0.568359,0.08008 0.31596,0.0219 0.637854,0.03516 0.964844,0.03516 0.41217,-2e-5 0.755898,-0.08799 1.054688,-0.251953 l 0.002,0 c 0.32802,-0.18619 0.599908,-0.421545 0.824218,-0.708985 l 0.002,-0.002 c 0.22882,-0.30532 0.400805,-0.646256 0.521485,-1.035156 l 0.002,-0.0039 0.002,-0.0059 c 0.13127,-0.40297 0.197266,-0.808729 0.197266,-1.230469 0,-0.50497 -0.0723,-0.969513 -0.212891,-1.402343 l -0.002,-0.0059 -0.002,-0.0059 C 61.132862,37.68336 60.94002,37.315869 60.6875,37.005859 l -0.002,-0.0039 -0.002,-0.0039 c -0.2408,-0.30656 -0.540982,-0.551594 -0.919922,-0.740235 l -0.002,-0.002 -0.002,0 c -0.35389,-0.18054 -0.770702,-0.277343 -1.263672,-0.277343 z"
       id="path4216"
       transform="translate(212.24338,344.33194)"
       inkscape:connector-curvature="0" />
  </g>
</svg>
